<?xml version="1.0" standalone="no"?>
<!DOCTYPE svg PUBLIC "-//W3C//DTD SVG 20010904//EN"
 "http://www.w3.org/TR/2001/REC-SVG-20010904/DTD/svg10.dtd">
<svg version="1.0" xmlns="http://www.w3.org/2000/svg"
 width="100.000000pt" height="100.000000pt" viewBox="0 0 100.000000 100.000000"
 preserveAspectRatio="xMidYMid meet">
<metadata>
Created by potrace 1.13, written by Peter Selinger 2001-2015
</metadata>
<g transform="translate(0.000000,100.000000) scale(0.100000,-0.100000)"
fill="#000000" stroke="none">
<path d="M25 975 l-25 -24 0 -451 0 -451 25 -24 24 -25 451 0 451 0 24 25 25
24 0 451 0 451 -25 24 -24 25 -451 0 -451 0 -24 -25z m913 -557 l-3 -353 -437
-3 -438 -2 0 355 0 355 440 0 440 0 -2 -352z"/>
<path d="M126 678 c-13 -18 -16 -52 -16 -164 0 -142 0 -143 26 -163 23 -18 41
-21 139 -21 98 0 116 3 139 21 26 20 26 21 26 163 0 194 7 186 -165 186 -127
0 -135 -1 -149 -22z"/>
<path d="M577 682 c-14 -16 -17 -42 -17 -163 0 -79 4 -149 8 -155 17 -26 56
-34 162 -34 104 0 112 1 135 25 24 23 25 29 25 162 0 190 7 183 -164 183 -116
0 -135 -2 -149 -18z"/>
<path d="M122 248 c-18 -18 -14 -46 7 -58 26 -13 266 -13 292 0 23 13 25 55 3
64 -31 12 -289 7 -302 -6z"/>
<path d="M562 248 c-16 -16 -15 -33 4 -52 12 -13 41 -16 148 -16 145 0 170 8
164 51 l-3 24 -150 3 c-109 2 -154 -1 -163 -10z"/>
</g>
</svg>
