<?xml version="1.0" standalone="no"?>
<!DOCTYPE svg PUBLIC "-//W3C//DTD SVG 20010904//EN"
 "http://www.w3.org/TR/2001/REC-SVG-20010904/DTD/svg10.dtd">
<svg version="1.0" xmlns="http://www.w3.org/2000/svg"
 width="100.000000pt" height="100.000000pt" viewBox="0 0 100.000000 100.000000"
 preserveAspectRatio="xMidYMid meet">
<metadata>
Created by potrace 1.13, written by Peter Selinger 2001-2015
</metadata>
<g transform="translate(0.000000,100.000000) scale(0.100000,-0.100000)"
fill="#000000" stroke="none">
<path d="M375 961 c-52 -13 -113 -50 -139 -84 -49 -64 -56 -96 -56 -252 l0
-145 140 0 140 0 0 36 c0 24 -9 46 -26 67 -24 29 -26 36 -22 120 3 78 6 91 26
107 19 16 22 28 22 89 l0 71 -27 -1 c-16 -1 -41 -4 -58 -8z"/>
<path d="M540 900 c0 -62 3 -74 23 -90 19 -16 22 -29 25 -108 4 -86 3 -90 -25
-123 -21 -25 -27 -42 -25 -66 l3 -33 140 0 139 0 0 148 c0 158 -12 206 -63
260 -32 35 -107 70 -166 78 l-51 7 0 -73z"/>
<path d="M463 774 c-23 -23 -25 -31 -21 -91 4 -67 20 -93 58 -93 38 0 54 26
58 93 4 60 2 68 -21 91 -15 14 -31 26 -37 26 -6 0 -22 -12 -37 -26z"/>
<path d="M180 343 c1 -166 29 -225 135 -281 47 -25 58 -27 185 -27 122 0 139
2 180 23 63 33 89 59 116 117 21 44 24 65 24 168 l0 117 -320 0 -320 0 0 -117z"/>
</g>
</svg>
