<?xml version="1.0" standalone="no"?>
<!DOCTYPE svg PUBLIC "-//W3C//DTD SVG 20010904//EN"
 "http://www.w3.org/TR/2001/REC-SVG-20010904/DTD/svg10.dtd">
<svg version="1.0" xmlns="http://www.w3.org/2000/svg"
 width="100.000000pt" height="100.000000pt" viewBox="0 0 100.000000 100.000000"
 preserveAspectRatio="xMidYMid meet">
<metadata>
Created by potrace 1.13, written by Peter Selinger 2001-2015
</metadata>
<g transform="translate(0.000000,100.000000) scale(0.100000,-0.100000)"
fill="#000000" stroke="none">
<path d="M224 990 c-33 -13 -82 -77 -90 -115 -11 -58 1 -143 23 -173 41 -56
86 -74 155 -63 4 0 23 15 43 32 42 38 70 118 59 176 -19 109 -108 176 -190
143z"/>
<path d="M539 977 c-99 -65 -104 -251 -9 -319 101 -72 233 35 218 177 -15 130
-120 202 -209 142z"/>
<path d="M912 572 c-46 -57 -89 -101 -95 -99 -7 2 -14 32 -17 68 l-5 65 -345
0 -345 -1 -3 -302 -2 -303 350 0 350 0 0 105 c0 139 10 139 116 3 l79 -101 3
172 c1 95 1 245 0 335 l-3 162 -83 -104z"/>
<path d="M0 447 l0 -133 40 0 40 1 0 133 0 132 -40 0 -40 0 0 -133z"/>
</g>
</svg>
